Coordinates
version=1
nRows=65
nColumns=12
inDegrees=yes

Units are S.I. units (second, meters, Newtons, ...)
Angles are in degrees

endheader
time	SC_y	SC_z	SC_x	AC_y	AC_z	AC_x	GH_y	GH_z	GH_yy	EL_x	PS_y
       0.0               -44.0          25.13          55.71          35.88         -4.365          15.29          114.5         -6.733         -160.9          42.99          8.082
   0.03274               -44.0          25.13          55.71          35.89         -4.364          15.29          114.5         -6.723         -160.9          42.99          8.082
   0.06548               -44.0          25.12          55.71          35.89         -4.362          15.29          114.4         -6.713         -160.8          42.98          8.083
   0.09822               -44.0          25.12          55.72           35.9         -4.361          15.28          114.4         -6.702         -160.8          42.98          8.084
     0.131              -43.99          25.11          55.72           35.9         -4.359          15.28          114.3          -6.69         -160.8          42.98          8.085
    0.1637              -43.99          25.11          55.72          35.91         -4.357          15.28          114.3         -6.678         -160.7          42.97          8.086
    0.1964              -43.99           25.1          55.73          35.92         -4.355          15.28          114.2         -6.664         -160.7          42.97          8.087
    0.2292              -43.99          25.09          55.73          35.92         -4.353          15.27          114.2          -6.65         -160.6          42.96          8.087
    0.2619              -43.99          25.09          55.74          35.93          -4.35          15.27          114.1         -6.635         -160.6          42.96          8.089
    0.2947              -43.98          25.08          55.74          35.94         -4.348          15.27          114.1         -6.618         -160.6          42.95           8.09
    0.3274              -43.98          25.07          55.75          35.95         -4.345          15.26          114.0         -6.601         -160.5          42.94          8.091
    0.3602              -43.98          25.06          55.76          35.96         -4.342          15.26          113.9         -6.582         -160.4          42.94          8.092
    0.3929              -43.97          25.06          55.76          35.96         -4.339          15.26          113.8         -6.561         -160.4          42.93          8.094
    0.4256              -43.97          25.05          55.77          35.98         -4.335          15.25          113.7         -6.539         -160.3          42.92          8.095
    0.4584              -43.97          25.04          55.78          35.99         -4.332          15.25          113.6         -6.515         -160.3          42.91          8.097
    0.4911              -43.96          25.03          55.79           36.0         -4.328          15.24          113.5         -6.489         -160.2           42.9          8.098
    0.5239              -43.96          25.01           55.8          36.01         -4.323          15.24          113.4         -6.461         -160.1          42.89            8.1
    0.5566              -43.95           25.0          55.81          36.03         -4.318          15.23          113.3          -6.43         -160.0          42.88          8.103
    0.5893              -43.95          24.99          55.82          36.04         -4.313          15.23          113.2         -6.397         -159.9          42.87          8.105
    0.6221              -43.94          24.97          55.83          36.06         -4.307          15.22          113.0          -6.36         -159.8          42.85          8.107
    0.6548              -43.94          24.95          55.85          36.08         -4.301          15.21          112.9          -6.32         -159.7          42.84           8.11
    0.6876              -43.93          24.93          55.86           36.1         -4.294           15.2          112.7         -6.275         -159.6          42.82          8.113
    0.7203              -43.92          24.91          55.88          36.12         -4.287          15.19          112.5         -6.226         -159.4          42.81          8.116
     0.753              -43.91          24.89           55.9          36.15         -4.278          15.18          112.3         -6.172         -159.3          42.79           8.12
    0.7858               -43.9          24.86          55.92          36.18         -4.269          15.17          112.0         -6.112         -159.1          42.76          8.124
    0.8185              -43.89          24.83          55.94          36.21         -4.258          15.16          111.8         -6.044         -158.9          42.74          8.129
    0.8513              -43.88           24.8          55.97          36.24         -4.247          15.14          111.5         -5.969         -158.7          42.71          8.134
     0.884              -43.87          24.77           56.0          36.28         -4.233          15.13          111.1         -5.884         -158.4          42.68           8.14
    0.9168              -43.85          24.72          56.03          36.33         -4.218          15.11          110.8         -5.788         -158.2          42.64          8.146
    0.9495              -43.84          24.68          56.07          36.38         -4.201          15.09          110.3         -5.679         -157.8           42.6          8.154
    0.9822              -43.82          24.62          56.11          36.44         -4.182          15.06          109.8         -5.555         -157.5          42.56          8.162
     1.015               -43.8          24.56          56.16          36.51          -4.16          15.04          109.3         -5.413         -157.1          42.51          8.172
     1.048              -43.77          24.49          56.21          36.58         -4.134           15.0          108.6         -5.248         -156.6          42.45          8.183
      1.08              -43.74          24.41          56.28          36.67         -4.105          14.97          107.8         -5.057         -156.1          42.38          8.196
     1.113              -43.71          24.31          56.36          36.78          -4.07          14.92          106.9         -4.833         -155.4          42.29          8.212
     1.146              -43.67           24.2          56.45           36.9         -4.029          14.87          105.9         -4.569         -154.6           42.2           8.23
     1.179              -43.62          24.07          56.55          37.05          -3.98          14.81          104.6         -4.255         -153.7          42.08          8.251
     1.211              -43.56          23.91          56.68          37.23         -3.921          14.74          103.2         -3.879         -152.7          41.94          8.277
     1.244              -43.49          23.71          56.84          37.44         -3.851          14.65          101.3         -3.425         -151.3          41.78          8.308
     1.277               -43.4          23.47          57.03           37.7         -3.764          14.54          99.13         -2.869         -149.7          41.57          8.346
      1.31               -43.3          23.18          57.26          38.02         -3.657          14.41           96.4         -2.183         -147.8          41.32          8.393
     1.342              -43.16          22.81          57.56          38.43         -3.524          14.25           93.0         -1.328         -145.3          41.01          8.452
     1.375               -43.0          22.35          57.93          38.93         -3.357          14.04          88.71        -0.2513         -142.2          40.61          8.525
     1.408              -42.79          21.76          58.39          39.58         -3.144          13.77          83.26          1.118         -138.3          40.11          8.619
     1.441              -42.51          21.01          58.99           40.4         -2.871          13.44          76.29           2.87         -133.2          39.46          8.739
     1.473              -42.17          20.04          59.77          41.46         -2.521           13.0          67.34          5.119         -126.7          38.64          8.893
     1.506              -41.72          18.81          60.75          42.81         -2.074          12.45           55.9          7.992         -118.4          37.58          9.089
     1.539              -41.16          17.26          61.99          44.51         -1.512          11.75          41.53           11.6         -108.0          36.25          9.336
     1.572              -40.48          15.37          63.49          46.58        -0.8265           10.9          24.01          16.01         -95.35          34.63          9.637
     1.604              -39.69          13.18          65.24          48.98       -0.03245          9.912          3.699          21.11         -80.64          32.76          9.986
     1.637              -38.84          10.81          67.13          51.57         0.8274          8.844         -18.29          26.63         -64.72          30.73          10.36
      1.67              -37.98          8.439          69.03          54.17          1.687          7.777         -40.28          32.16          -48.8           28.7          10.74
     1.703              -37.19          6.249          70.77          56.57          2.481          6.791         -60.59          37.26         -34.09          26.82          11.09
     1.735              -36.51           4.36          72.28          58.64          3.166          5.941         -78.11          41.66         -21.41          25.21          11.39
     1.768              -35.95           2.81          73.52          60.34          3.729          5.243         -92.48          45.27          -11.0          23.88          11.64
     1.801              -35.51          1.577           74.5          61.69          4.176          4.688         -103.9          48.15         -2.716          22.82          11.84
     1.834              -35.16         0.6116          75.27          62.75          4.526          4.254         -112.9           50.4          3.766           22.0          11.99
     1.866              -34.89        -0.1406          75.87          63.57          4.798          3.915         -119.8          52.15          8.817          21.35          12.11
     1.899              -34.68        -0.7282          76.34          64.21          5.011           3.65         -125.3          53.52          12.76          20.85           12.2
     1.932              -34.51          -1.19          76.71          64.72          5.179          3.442         -129.6          54.59          15.87          20.45          12.28
     1.964              -34.38         -1.557           77.0          65.12          5.312          3.277         -133.0          55.45          18.33          20.14          12.34
     1.997              -34.27         -1.852          77.24          65.45          5.419          3.145         -135.7          56.14          20.31          19.89          12.38
      2.03              -34.18          -2.09          77.43          65.71          5.505          3.037         -137.9          56.69          21.91          19.68          12.42
     2.063              -34.11         -2.285          77.59          65.92          5.576           2.95         -139.7          57.15          23.22          19.51          12.45
     2.095              -34.06         -2.447          77.71           66.1          5.635          2.877         -141.2          57.52           24.3          19.38          12.48
